# xmcd
#
# Track frame offsets: 
#        150
#        16057
#        29805
#        44620
#        58692
#        68882
#        83672
#        97055
#        110700
#        123602
#        138022
#        150392
#        162717
#        175232
#        188837
#        202100
#        214305
#        228717
#        241637
#        256820
#        269925
#        285170
#        298280
#        313252
#
# Disc length: 4355 seconds
#
# Revision: 2
# Processed by: cddbd v1.5.2PL0 Copyright (c) Steve Scherf et al.
# Submitted via: ExactAudioCopyFreeDBPlugin 1.0
#
DISCID=75110118
DTITLE=The Ink Spots - The Anthology
DYEAR=1998
DGENRE=Rhythm and Blues
TTITLE0=(It Will Have to Do) Until the Real Thing Comes Along
TTITLE1=I Don't Want to Set the World on Fire
TTITLE2=Someone's Rocking My Dreamboat
TTITLE3=Don't Tell a Lie About Me, Dear (And I Won't Tell the Truth Ab
TTITLE3=out You)
TTITLE4=Who Wouldn't Love You?
TTITLE5=Ev'ry Night About This Time
TTITLE6=Street of Dreams
TTITLE7=Don't Get Around Much Anymore
TTITLE8=I'll Get By (As Long as I Have You)
TTITLE9=I'm Making Believe
TTITLE10=I'm Beginning to See the Light
TTITLE11=The Sweetest Dream
TTITLE12=The Gypsy
TTITLE13=Prisoner of Love
TTITLE14=I Cover the Waterfront
TTITLE15=I Get the Blues When it Rains
TTITLE16=To Each His Own
TTITLE17=That's Where I Came In
TTITLE18=Ask Anyone Who Knows
TTITLE19=You Were Only Fooling (While I Was Falling in Love)
TTITLE20=You're Breaking My Heart
TTITLE21=Sometime
TTITLE22=The Way it Used to Be
TTITLE23=If
EXTD=
EXTT0=
EXTT1=
EXTT2=
EXTT3=
EXTT4=
EXTT5=
EXTT6=
EXTT7=
EXTT8=
EXTT9=w/ Ella Fitzgerald\n
EXTT10=w/ Ella Fitzgerald\n
EXTT11=
EXTT12=
EXTT13=
EXTT14=
EXTT15=
EXTT16=
EXTT17=
EXTT18=
EXTT19=
EXTT20=
EXTT21=
EXTT22=
EXTT23=
PLAYORDER=
